<svg xmlns="http://www.w3.org/2000/svg" viewBox="0 0 512 512">
  <defs>
    <!-- Red/coral gradient (darker at bottom) -->
    <linearGradient id="redGrad" x1="0%" y1="0%" x2="0%" y2="100%">
      <stop offset="0%" style="stop-color:#D4635A"/>
      <stop offset="100%" style="stop-color:#B54A42"/>
    </linearGradient>
    
    <!-- Green/teal gradient (darker at bottom) -->
    <linearGradient id="greenGrad" x1="0%" y1="0%" x2="0%" y2="100%">
      <stop offset="0%" style="stop-color:#5A8A7A"/>
      <stop offset="100%" style="stop-color:#3D6B5C"/>
    </linearGradient>
  </defs>
  
  <!-- Left panel (red/coral) - outside r=90, inside r=20 -->
  <path d="M 122,16 L 222,16 A 20,20 0 0,1 242,36 L 242,476 A 20,20 0 0,1 222,496 L 122,496 A 90,90 0 0,1 32,406 L 32,106 A 90,90 0 0,1 122,16 Z" fill="url(#redGrad)"/>

  <!-- Right panel (teal/green) - outside r=90, inside r=20 -->
  <path d="M 290,16 L 390,16 A 90,90 0 0,1 480,106 L 480,406 A 90,90 0 0,1 390,496 L 290,496 A 20,20 0 0,1 270,476 L 270,36 A 20,20 0 0,1 290,16 Z" fill="url(#greenGrad)"/>
  
</svg>
