<svg xmlns="http://www.w3.org/2000/svg" viewBox="0 0 512 512">
  <defs>
    <!-- Red/coral gradient (darker at bottom) -->
    <linearGradient id="redGrad" x1="0%" y1="0%" x2="0%" y2="100%">
      <stop offset="0%" style="stop-color:#E8776E"/>
      <stop offset="100%" style="stop-color:#D45A52"/>
    </linearGradient>

    <!-- Green/teal gradient (darker at bottom) -->
    <linearGradient id="greenGrad" x1="0%" y1="0%" x2="0%" y2="100%">
      <stop offset="0%" style="stop-color:#6EA692"/>
      <stop offset="100%" style="stop-color:#4E8370"/>
    </linearGradient>
  </defs>
  
  <!-- Left panel (red/coral) - all corners r=90 -->
  <path d="M 122,16 L 152,16 A 90,90 0 0,1 242,106 L 242,406 A 90,90 0 0,1 152,496 L 122,496 A 90,90 0 0,1 32,406 L 32,106 A 90,90 0 0,1 122,16 Z" fill="url(#redGrad)"/>

  <!-- Right panel (teal/green) - all corners r=90 -->
  <path d="M 360,16 L 390,16 A 90,90 0 0,1 480,106 L 480,406 A 90,90 0 0,1 390,496 L 360,496 A 90,90 0 0,1 270,406 L 270,106 A 90,90 0 0,1 360,16 Z" fill="url(#greenGrad)"/>
  
</svg>
