<svg width="24" height="24" viewBox="0 0 113 78" fill="none" xmlns="http://www.w3.org/2000/svg">
<path d="M91.6177 33.4286C85.5292 39.5462 77.9185 47.1933 68.8582 56.2969L53.9994 71.2269C49.143 75.7423 43.127 78 36.0237 78C28.9205 78 22.9044 75.7423 18.0481 71.2269L12.0321 65.1821L0 77.2717V41.1485H35.9513L23.9917 53.2381L30.0077 59.2829C31.6023 60.8123 33.6318 61.5406 36.0237 61.5406C38.4157 61.5406 40.3727 60.8123 42.0398 59.2829L79.6581 21.4846C78.9333 18.5714 78.8608 15.7311 79.5856 12.8179C80.238 9.90476 81.7601 7.35574 84.0071 5.09804C87.4862 1.67507 91.4727 0 95.9666 0C100.461 0 104.447 1.67507 107.926 5.09804C111.26 8.59384 113 12.5994 113 17.1148C113 21.6303 111.333 25.6359 107.926 29.1317C105.679 31.3894 103.142 32.8459 100.243 33.5742C97.3438 34.2297 94.517 34.2297 91.6177 33.4286ZM103.142 9.83193C101.113 7.86555 98.6485 6.91877 95.9666 6.91877C93.2123 6.91877 90.8204 7.93838 88.8634 9.90476C86.8339 11.944 85.8916 14.2745 85.8916 17.042C85.8916 19.8095 86.9064 22.2129 88.8634 24.1793C90.8929 26.2185 93.2123 27.1653 95.9666 27.1653C98.721 27.1653 101.113 26.1457 103.07 24.1793C105.099 22.1401 106.042 19.8095 106.042 17.042C106.042 14.3473 105.027 11.944 103.142 9.83193Z" fill="currentColor"/>
</svg>
